<?xml version="1.0" encoding="UTF-8" standalone="no"?>
<!-- Created with Inkscape (http://www.inkscape.org/) -->

<svg
   xmlns:dc="http://purl.org/dc/elements/1.1/"
   xmlns:cc="http://creativecommons.org/ns#"
   xmlns:rdf="http://www.w3.org/1999/02/22-rdf-syntax-ns#"
   xmlns:svg="http://www.w3.org/2000/svg"
   xmlns="http://www.w3.org/2000/svg"
   xmlns:sodipodi="http://sodipodi.sourceforge.net/DTD/sodipodi-0.dtd"
   xmlns:inkscape="http://www.inkscape.org/namespaces/inkscape"
   id="svg2"
   version="1.1"
   inkscape:version="0.48.4 r9939"
   width="1594.4387"
   height="1474.6975"
   xml:space="preserve"
   sodipodi:docname="Spirit_Main_Crest_RGB.pdf"><metadata
     id="metadata8"><rdf:RDF><cc:Work
         rdf:about=""><dc:format>image/svg+xml</dc:format><dc:type
           rdf:resource="http://purl.org/dc/dcmitype/StillImage" /><dc:title></dc:title></cc:Work></rdf:RDF></metadata><defs
     id="defs6"><clipPath
       clipPathUnits="userSpaceOnUse"
       id="clipPath16"><path
         d="m 0,0 1500,0 0,1500 L 0,1500 0,0 z"
         id="path18"
         inkscape:connector-curvature="0" /></clipPath></defs><sodipodi:namedview
     pagecolor="#ffffff"
     bordercolor="#666666"
     borderopacity="1"
     objecttolerance="10"
     gridtolerance="10"
     guidetolerance="10"
     inkscape:pageopacity="0"
     inkscape:pageshadow="2"
     inkscape:window-width="1024"
     inkscape:window-height="538"
     id="namedview4"
     showgrid="false"
     fit-margin-top="0"
     fit-margin-left="0"
     fit-margin-right="0"
     fit-margin-bottom="0"
     inkscape:zoom="0.12586667"
     inkscape:cx="797.219"
     inkscape:cy="737.34846"
     inkscape:window-x="-8"
     inkscape:window-y="-8"
     inkscape:window-maximized="1"
     inkscape:current-layer="g10" /><g
     id="g10"
     inkscape:groupmode="layer"
     inkscape:label="Spirit_Main_Crest_RGB"
     transform="matrix(1.25,0,0,-1.25,-140.281,1674.849)"><g
       id="g12"><g
         id="g14"
         clip-path="url(#clipPath16)"><g
           id="g20"
           transform="translate(719.0088,178.0332)"><path
             d="m 0,0 c -104.466,61.788 -191.933,152.764 -259.982,270.394 -20.13,34.794 -38.802,72.426 -55.585,112.015 l -171.082,-47.987 25.121,142.607 -145.256,55.9 152.828,60.191 -33.934,81.925 25.011,10.36 c 18.757,7.769 37.958,15.19 57.225,22.116 -23.972,151.403 -20.638,265.087 -20.481,269.965 l 1.387,42.538 40.694,12.427 c 23.311,7.116 62.529,17.164 120.456,26.1 l -23.135,68.953 66.962,12.74 c 42.409,8.067 131.184,21.602 249.268,21.602 83.201,0 167.237,-6.698 249.774,-19.9 l 69.491,-11.118 -24.437,-72.306 c 35.35,-5.465 80.647,-13.963 120.29,-26.071 l 40.701,-12.427 1.385,-42.536 c 0.159,-4.856 3.496,-118.057 -20.347,-269.123 20.092,-7.179 40.09,-14.884 59.586,-22.96 l 25.011,-10.36 -34.085,-82.29 151.901,-59.826 -145.254,-55.9 25.121,-142.607 -172.352,48.341 C 359.461,343.039 340.74,305.288 320.554,270.394 252.502,152.761 165.03,61.788 60.571,0 L 30.283,-17.912 0,0 z"
             style="fill:#ffffff;fill-opacity:1;fill-rule:nonzero;stroke:none"
             id="path22"
             inkscape:connector-curvature="0" /></g><g
           id="g24"
           transform="translate(1228.1982,663.6943)"><path
             d="M 0,0 123.213,47.414 -8.298,99.207 c -8.843,7.04 -18.354,10.608 -28.305,10.608 -29.128,0 -57.182,-30.088 -85.763,-91.982 -19.612,-42.457 -32.087,-84.183 -32.609,-85.937 L -158.89,-81.285 23.325,-132.396 0,0 z"
             style="fill:#171e27;fill-opacity:1;fill-rule:nonzero;stroke:none"
             id="path26"
             inkscape:connector-curvature="0" /></g><g
           id="g28"
           transform="translate(1212.9326,751.0938)"><path
             d="M 0,0 101.163,-39.839 0,-78.771 21.524,-200.947 -126.729,-159.36 c 0,0 63.518,213.807 126.729,159.36"
             style="fill:#c31b32;fill-opacity:1;fill-rule:nonzero;stroke:none"
             id="path30"
             inkscape:connector-curvature="0" /></g><g
           id="g32"
           transform="translate(1167.9014,639.7676)"><path
             d="m 0,0 c 0,0 -12.192,-22.988 -31.14,-18.927 -18.956,4.064 -31.151,7.694 -31.151,7.694 L -48.747,26.523 0,0 z"
             style="fill:#171e27;fill-opacity:1;fill-rule:nonzero;stroke:none"
             id="path34"
             inkscape:connector-curvature="0" /></g><g
           id="g36"
           transform="translate(273.6938,663.6943)"><path
             d="M 0,0 -123.213,47.414 8.297,99.207 c 8.844,7.04 18.356,10.608 28.305,10.608 29.132,0 57.186,-30.088 85.765,-91.982 19.608,-42.457 32.084,-84.183 32.608,-85.937 L 158.889,-81.285 -23.323,-132.396 0,0 z"
             style="fill:#171e27;fill-opacity:1;fill-rule:nonzero;stroke:none"
             id="path38"
             inkscape:connector-curvature="0" /></g><g
           id="g40"
           transform="translate(288.957,751.0938)"><path
             d="M 0,0 -101.16,-39.839 0,-78.771 -21.52,-200.947 126.735,-159.36 C 126.735,-159.36 63.214,54.447 0,0"
             style="fill:#c31b32;fill-opacity:1;fill-rule:nonzero;stroke:none"
             id="path42"
             inkscape:connector-curvature="0" /></g><g
           id="g44"
           transform="translate(726.8418,189.6855)"><path
             d="m 0,0 c -102.437,60.593 -188.283,149.923 -255.153,265.519 -52.565,90.86 -93.541,198.071 -121.783,318.661 -47.689,203.621 -42.789,374.06 -42.558,381.215 l 1.073,32.857 31.435,9.601 c 43.731,13.352 94.559,22.356 134.477,28.023 l -23.346,69.575 51.728,9.842 c 41.937,7.978 129.76,21.363 246.738,21.363 82.483,0 165.797,-6.637 247.633,-19.729 l 53.678,-8.586 -24.498,-72.482 c 39.884,-5.669 90.665,-14.666 134.347,-28.006 l 31.44,-9.601 1.068,-32.855 c 0.236,-7.157 5.136,-177.6 -42.552,-381.217 C 395.48,463.593 354.511,356.379 301.943,265.519 235.075,149.923 149.227,60.593 46.792,0 L 23.395,-13.838 0,0 z"
             style="fill:#171e27;fill-opacity:1;fill-rule:nonzero;stroke:none"
             id="path46"
             inkscape:connector-curvature="0" /></g><g
           id="g48"
           transform="translate(734.6396,202.8682)"><path
             d="m 0,0 c -100.143,59.237 -184.155,146.716 -249.693,260.009 -51.81,89.553 -92.228,195.361 -120.126,314.484 -47.249,201.728 -42.388,370.152 -42.161,377.222 l 0.714,21.904 20.959,6.4 c 50.708,15.484 111.722,25.006 150.416,29.978 l -23.657,70.505 34.486,6.561 c 41.407,7.875 128.157,21.093 243.875,21.093 81.677,0 164.177,-6.572 245.209,-19.537 l 35.788,-5.723 -24.638,-72.91 c 38.694,-4.972 99.652,-14.494 150.335,-29.967 l 20.951,-6.4 0.717,-21.904 c 0.23,-7.07 5.09,-175.494 -42.158,-377.222 C 373.118,455.37 332.702,349.562 280.893,260.009 215.349,146.716 131.34,59.237 31.197,0 L 15.597,-9.223 0,0 z"
             style="fill:#bbbab8;fill-opacity:1;fill-rule:nonzero;stroke:none"
             id="path50"
             inkscape:connector-curvature="0" /></g><g
           id="g52"
           transform="translate(964.624,1186.6738)"><path
             d="m 0,0 25.2,74.563 c -231.504,37.036 -412.472,11.164 -478.521,-1.402 L -428.772,0 c 0,0 -105.183,-9.454 -182.573,-33.087 0,0 -22.003,-676.531 396.957,-924.347 C 204.578,-709.618 182.57,-33.087 182.57,-33.087 105.185,-9.454 0,0 0,0"
             style="fill:#171e27;fill-opacity:1;fill-rule:nonzero;stroke:none"
             id="path54"
             inkscape:connector-curvature="0" /></g><g
           id="g56"
           transform="translate(471.4141,851.498)"><path
             d="m 0,0 c -11.82,-48.159 -21.586,-94.213 -29.401,-134.604 0.014,-16.629 0.024,-33.492 0.029,-50.621 8.651,-31.463 18.456,-61.566 29.372,-90.162 L 0,0 z"
             style="fill:#ffffff;fill-opacity:1;fill-rule:nonzero;stroke:none"
             id="path58"
             inkscape:connector-curvature="0" /></g><g
           id="g60"
           transform="translate(550.23,976.1885)"><path
             d="m 0,0 c -9.839,-4.647 -19.259,-8.788 -28.271,-12.51 l 0,-495.562 c 15.525,-27.233 32.409,-52.405 50.55,-75.407 l 0,593.752 C 15.083,7.037 7.68,3.632 0,0"
             style="fill:#ffffff;fill-opacity:1;fill-rule:nonzero;stroke:none"
             id="path62"
             inkscape:connector-curvature="0" /></g><g
           id="g64"
           transform="translate(623.0542,1007.3564)"><path
             d="m 0,0 0,-670.068 c 8.997,-8.473 18.225,-16.518 27.687,-24.097 7.456,-5.97 15.082,-11.681 22.863,-17.124 l 0,727.146 C 34.83,11.976 18.158,6.742 0,0"
             style="fill:#ffffff;fill-opacity:1;fill-rule:nonzero;stroke:none"
             id="path66"
             inkscape:connector-curvature="0" /></g><g
           id="g68"
           transform="translate(950.2441,976.1885)"><path
             d="m 0,0 c -8.257,3.906 -16.196,7.554 -23.902,10.998 l 0,-596.509 c 18.117,22.746 35.006,47.615 50.545,74.553 l 0,499.124 C 18.121,-8.285 9.249,-4.372 0,0"
             style="fill:#ffffff;fill-opacity:1;fill-rule:nonzero;stroke:none"
             id="path70"
             inkscape:connector-curvature="0" /></g><g
           id="g72"
           transform="translate(1027.4336,850.623)"><path
             d="m 0,0 0,-278.738 c 11.564,29.86 21.924,61.384 31.008,94.406 0.005,15.037 0.013,29.872 0.023,44.526 C 22.879,-98.236 12.557,-50.275 0,0"
             style="fill:#ffffff;fill-opacity:1;fill-rule:nonzero;stroke:none"
             id="path74"
             inkscape:connector-curvature="0" /></g><g
           id="g76"
           transform="translate(826.583,1023.2871)"><path
             d="m 0,0 c -0.192,-3.27 -0.653,-6.478 -1.337,-9.615 l 0,-718.735 c 8.344,5.787 16.517,11.864 24.489,18.254 8.892,7.127 17.572,14.682 26.059,22.599 l 0,672.179 C 31.572,-8.83 15.338,-3.773 0,0"
             style="fill:#ffffff;fill-opacity:1;fill-rule:nonzero;stroke:none"
             id="path78"
             inkscape:connector-curvature="0" /></g><g
           id="g80"
           transform="translate(471.4141,576.1113)"><path
             d="m 0,0 c 13.565,-35.546 28.824,-68.779 45.674,-99.373 1.601,-2.909 3.243,-5.764 4.871,-8.622 l 0,495.562 C 42.716,384.332 35.195,381.416 28.03,378.815 17.653,344.118 8.31,309.236 0,275.387 L 0,0 z"
             style="fill:#c31b32;fill-opacity:1;fill-rule:nonzero;stroke:none"
             id="path82"
             inkscape:connector-curvature="0" /></g><g
           id="g84"
           transform="translate(572.5093,986.4619)"><path
             d="m 0,0 0,-593.752 c 15.9,-20.154 32.762,-38.668 50.545,-55.422 l 0,670.069 C 34.931,15.097 18.196,8.165 0,0"
             style="fill:#c31b32;fill-opacity:1;fill-rule:nonzero;stroke:none"
             id="path86"
             inkscape:connector-curvature="0" /></g><g
           id="g88"
           transform="translate(673.8901,1023.2871)"><path
             d="m 0,0 c -0.096,-0.024 -0.19,-0.051 -0.286,-0.073 l 0,-727.147 c 16.194,-11.329 33.075,-21.519 50.545,-30.49 l 0,696.287 C 22.164,-51.942 1.681,-28.063 0,0"
             style="fill:#c31b32;fill-opacity:1;fill-rule:nonzero;stroke:none"
             id="path90"
             inkscape:connector-curvature="0" /></g><g
           id="g92"
           transform="translate(774.6992,961.3438)"><path
             d="m 0,0 0,-696.584 c 17.465,8.875 34.344,18.951 50.547,30.178 l 0,718.734 C 45.212,27.997 25.621,8.06 0,0"
             style="fill:#c31b32;fill-opacity:1;fill-rule:nonzero;stroke:none"
             id="path94"
             inkscape:connector-curvature="0" /></g><g
           id="g96"
           transform="translate(875.7939,1007.9688)"><path
             d="m 0,0 0,-672.179 c 17.772,16.591 34.638,34.909 50.548,54.888 l 0,596.509 C 32.358,-12.647 15.612,-5.75 0,0"
             style="fill:#c31b32;fill-opacity:1;fill-rule:nonzero;stroke:none"
             id="path98"
             inkscape:connector-curvature="0" /></g><g
           id="g100"
           transform="translate(976.8867,465.2305)"><path
             d="m 0,0 c 2.19,3.802 4.359,7.627 6.499,11.508 16.182,29.372 30.89,61.191 44.048,95.146 l 0,278.739 C 41.944,419.828 32.279,455.349 21.524,490.657 14.654,493.198 7.475,496.012 0,499.124 L 0,0 z"
             style="fill:#c31b32;fill-opacity:1;fill-rule:nonzero;stroke:none"
             id="path102"
             inkscape:connector-curvature="0" /></g><g
           id="g104"
           transform="translate(750.6289,957.4951)"><path
             d="M 0,0 -0.393,-0.004 -0.781,0 c -9.017,0.12 -17.665,1.658 -25.698,4.369 l 0,-696.287 c 8.559,-4.397 17.258,-8.497 26.086,-12.308 8.272,3.566 16.428,7.404 24.463,11.491 l 0,696.584 C 16.501,1.47 8.415,0.111 0,0"
             style="fill:#ffffff;fill-opacity:1;fill-rule:nonzero;stroke:none"
             id="path106"
             inkscape:connector-curvature="0" /></g><g
           id="g108"
           transform="translate(440.9746,679.4209)"><path
             d="m 0,0 c 0,0 63.935,68.624 310.488,68.624 274.63,0 306.979,-70.266 306.979,-70.266 0,0 145.566,444.888 -306.979,444.888 C -178.949,443.246 0,0 0,0"
             style="fill:#171e27;fill-opacity:1;fill-rule:nonzero;stroke:none"
             id="path110"
             inkscape:connector-curvature="0" /></g><g
           id="g112"
           transform="translate(422.8428,965.5664)"><path
             d="M 0,0 -23.279,11.204 2.14,15.823 5.603,41.43 17.851,18.683 43.272,23.303 25.422,4.621 37.675,-18.127 14.391,-6.924 -3.457,-25.604 0,0 z"
             style="fill:#ffffff;fill-opacity:1;fill-rule:nonzero;stroke:none"
             id="path114"
             inkscape:connector-curvature="0" /></g><g
           id="g116"
           transform="translate(412.646,1069.7363)"><path
             d="M 0,0 -22.979,11.811 2.553,15.764 6.689,41.268 18.333,18.205 43.871,22.155 25.537,3.952 37.184,-19.11 14.205,-7.3 -4.131,-25.507 0,0 z"
             style="fill:#ffffff;fill-opacity:1;fill-rule:nonzero;stroke:none"
             id="path118"
             inkscape:connector-curvature="0" /></g><g
           id="g120"
           transform="translate(516.5039,1086.4072)"><path
             d="M 0,0 -22.83,12.099 2.748,15.729 7.203,41.184 18.562,17.974 44.145,21.605 25.583,3.632 36.941,-19.573 14.111,-7.476 -4.451,-25.449 0,0 z"
             style="fill:#ffffff;fill-opacity:1;fill-rule:nonzero;stroke:none"
             id="path122"
             inkscape:connector-curvature="0" /></g><g
           id="g124"
           transform="translate(625.2134,1098.8682)"><path
             d="M 0,0 -21.488,14.346 4.326,15.371 11.332,40.243 20.286,16.006 46.102,17.029 25.818,1.025 34.77,-23.211 13.282,-8.866 -7.004,-24.87 0,0 z"
             style="fill:#ffffff;fill-opacity:1;fill-rule:nonzero;stroke:none"
             id="path126"
             inkscape:connector-curvature="0" /></g><g
           id="g128"
           transform="translate(1061.7686,958.9141)"><path
             d="M 0,0 -24.022,-9.51 -10.178,12.306 -26.646,32.215 -1.618,25.786 12.228,47.603 13.853,21.816 38.872,15.389 14.848,5.878 16.471,-19.909 0,0 z"
             style="fill:#ffffff;fill-opacity:1;fill-rule:nonzero;stroke:none"
             id="path130"
             inkscape:connector-curvature="0" /></g><g
           id="g132"
           transform="translate(1071.9873,1062.7119)"><path
             d="m 0,0 -23.858,-9.917 13.474,22.046 -16.806,19.626 25.132,-6 L 11.414,47.804 13.478,22.046 38.604,16.048 14.744,6.13 16.807,-19.623 0,0 z"
             style="fill:#ffffff;fill-opacity:1;fill-rule:nonzero;stroke:none"
             id="path134"
             inkscape:connector-curvature="0" /></g><g
           id="g136"
           transform="translate(970.1113,1078.8682)"><path
             d="M 0,0 -22.486,-12.718 -11.77,10.789 -30.817,28.248 -5.146,25.32 5.57,48.83 10.719,23.512 36.391,20.583 13.899,7.862 19.05,-17.457 0,0 z"
             style="fill:#ffffff;fill-opacity:1;fill-rule:nonzero;stroke:none"
             id="path138"
             inkscape:connector-curvature="0" /></g><g
           id="g140"
           transform="translate(861.1943,1090.0332)"><path
             d="M 0,0 -21.931,-13.665 -12.224,10.278 -31.992,26.911 -6.22,25.078 3.489,49.023 9.712,23.945 35.481,22.11 13.552,8.445 19.771,-16.63 0,0 z"
             style="fill:#ffffff;fill-opacity:1;fill-rule:nonzero;stroke:none"
             id="path142"
             inkscape:connector-curvature="0" /></g><g
           id="g144"
           transform="translate(585.5869,1199.4424)"><path
             d="M 0,0 -22.209,13.205 3.52,15.574 9.216,40.777 19.42,17.04 45.15,19.413 25.727,2.371 35.934,-21.365 13.727,-8.16 -5.696,-25.203 0,0 z"
             style="fill:#ffffff;fill-opacity:1;fill-rule:nonzero;stroke:none"
             id="path146"
             inkscape:connector-curvature="0" /></g><g
           id="g148"
           transform="translate(896.9736,1186.3779)"><path
             d="M 0,0 -22.37,-12.931 -11.872,10.681 -31.084,27.956 -5.388,25.27 5.109,48.882 10.498,23.61 36.193,20.923 13.821,7.991 19.209,-17.276 0,0 z"
             style="fill:#ffffff;fill-opacity:1;fill-rule:nonzero;stroke:none"
             id="path150"
             inkscape:connector-curvature="0" /></g><g
           id="g152"
           transform="translate(749.4238,1093.373)"><path
             d="m 0,0 -20.901,-15.187 7.985,24.099 -20.904,14.715 25.838,0 L 0,48.202 7.982,23.627 l 25.843,0 L 12.922,8.912 20.904,-15.424 0,0 z"
             style="fill:#ffffff;fill-opacity:1;fill-rule:nonzero;stroke:none"
             id="path154"
             inkscape:connector-curvature="0" /></g><g
           id="g156"
           transform="translate(1055.0313,691.3467)"><path
             d="M 0,0 C 0,0 -83.201,-282.581 -304.785,-423.514 -526.371,-282.581 -608.502,0 -608.502,0 l -23.119,-4.628 c 116.336,-365.852 326.59,-451.675 326.59,-451.78 l 0,-2.381 c 0,0 211.474,88.093 327.883,454.161 L 0,0 z"
             style="fill:#171e27;fill-opacity:1;fill-rule:nonzero;stroke:none"
             id="path158"
             inkscape:connector-curvature="0" /></g><g
           id="g160"
           transform="translate(1155.3955,644.9492)"><path
             d="m 0,0 c -64.053,26.532 -130.991,46.804 -198.96,60.257 -67.336,13.327 -136.289,20.086 -204.948,20.086 -68.665,0 -137.618,-6.759 -204.953,-20.086 C -676.831,46.804 -743.769,26.532 -807.817,0 l -12.508,-5.182 -85.32,205.985 12.506,5.181 c 77.579,32.133 158.658,56.689 240.985,72.984 81.559,16.142 165.08,24.329 248.246,24.329 83.163,0 166.681,-8.187 248.243,-24.329 C -73.339,262.673 7.737,238.117 85.317,205.984 L 97.825,200.803 12.506,-5.182 0,0 z"
             style="fill:#171e27;fill-opacity:1;fill-rule:nonzero;stroke:none"
             id="path162"
             inkscape:connector-curvature="0" /></g><g
           id="g164"
           transform="translate(1160.5723,657.4541)"><path
             d="m 0,0 c -261.934,108.496 -556.243,108.496 -818.175,0 -24.987,60.327 -49.973,120.647 -74.96,180.97 309.929,128.381 658.164,128.381 968.097,0 C 49.976,120.647 24.989,60.327 0,0"
             style="fill:#c31b32;fill-opacity:1;fill-rule:nonzero;stroke:none"
             id="path166"
             inkscape:connector-curvature="0" /></g><g
           id="g168"
           transform="translate(335.0708,639.7676)"><path
             d="m 0,0 c 0,0 11.111,-22.988 30.062,-18.927 18.954,4.064 27.53,6.934 27.53,6.934 L 47.667,26.523 0,0 z"
             style="fill:#171e27;fill-opacity:1;fill-rule:nonzero;stroke:none"
             id="path170"
             inkscape:connector-curvature="0" /></g><g
           id="g172"
           transform="translate(531.353,999.9336)"><path
             d="m 0,0 c -1.469,-13.83 -2.794,-27.658 -3.984,-41.476 -3.669,-0.675 -7.329,-1.368 -10.993,-2.076 -8.435,16.948 -17.068,33.819 -25.895,50.615 4.078,0.845 8.161,1.665 12.248,2.466 5.729,-11.512 11.382,-23.054 16.944,-34.628 1.016,12.811 2.147,25.625 3.394,38.448 3.963,0.71 7.923,1.403 11.895,2.074 5.408,-11.658 10.733,-23.343 15.973,-35.059 1.221,12.759 2.548,25.523 3.986,38.284 4.097,0.63 8.197,1.241 12.296,1.829 -2.52,-18.78 -4.797,-37.56 -6.828,-56.335 -3.674,-0.574 -7.346,-1.163 -11.013,-1.774 C 12.123,-25.049 6.112,-12.504 0,0"
             style="fill:#ffffff;fill-opacity:1;fill-rule:nonzero;stroke:none"
             id="path174"
             inkscape:connector-curvature="0" /></g><g
           id="g176"
           transform="translate(587.9404,1008.5137)"><path
             d="m 0,0 c -2,-7.246 -3.945,-14.491 -5.848,-21.739 5.613,0.76 11.224,1.483 16.834,2.164 C 7.37,-13.036 3.708,-6.51 0,0 m -22.692,-43.689 c 4.556,19.137 9.473,38.259 14.743,57.355 3.847,0.514 7.694,1.009 11.546,1.488 9.94,-17.125 19.57,-34.362 28.882,-51.697 -3.915,-0.43 -7.839,-0.873 -11.75,-1.34 -1.434,2.65 -2.874,5.293 -4.321,7.939 C 8,-30.938 -0.404,-32.021 -8.8,-33.189 c -0.717,-2.922 -1.429,-5.849 -2.13,-8.773 -3.922,-0.554 -7.841,-1.132 -11.762,-1.727"
             style="fill:#ffffff;fill-opacity:1;fill-rule:nonzero;stroke:none"
             id="path178"
             inkscape:connector-curvature="0" /></g><g
           id="g180"
           transform="translate(649.6035,1027.7061)"><path
             d="m 0,0 c 3.046,-0.981 5.941,-2.594 8.675,-4.836 -2.383,-2.607 -4.751,-5.22 -7.108,-7.843 -2.769,2.711 -6.458,3.88 -11.055,3.485 -4.585,-0.394 -7.427,-1.702 -8.504,-3.874 -1.082,-2.177 -0.914,-3.933 0.493,-5.265 1.404,-1.335 4.412,-2.15 9.023,-2.486 4.84,-0.07 9.327,-1.236 13.427,-3.486 4.102,-2.25 6.33,-6.177 6.727,-11.755 0.315,-4.366 -1.476,-8.263 -5.321,-11.723 -3.847,-3.461 -8.454,-5.417 -13.861,-5.892 -5.139,-0.454 -9.493,-0.132 -13.09,0.979 -3.594,1.113 -6.756,2.738 -9.49,4.894 2.215,2.679 4.443,5.352 6.689,8.017 2.785,-2.653 7.17,-3.93 13.162,-3.881 4.958,0.44 7.963,1.722 9.028,3.88 1.059,2.16 0.895,4.22 -0.509,6.179 -1.409,1.959 -4.639,2.975 -9.704,3.015 -4.555,0.079 -8.82,1.019 -12.806,2.82 -3.992,1.802 -6.278,5.346 -6.836,10.668 -0.505,4.807 1.26,8.901 5.338,12.25 4.077,3.347 8.453,5.226 13.079,5.631 C -7.273,1.252 -3.049,0.98 0,0"
             style="fill:#ffffff;fill-opacity:1;fill-rule:nonzero;stroke:none"
             id="path182"
             inkscape:connector-curvature="0" /></g><g
           id="g184"
           transform="translate(666.6553,975.9355)"><path
             d="m 0,0 c -1.243,18.19 -2.481,36.378 -3.712,54.569 3.857,0.259 7.72,0.503 11.582,0.728 0.423,-7.279 0.846,-14.56 1.279,-21.838 8.836,0.516 17.682,0.937 26.528,1.266 -0.275,7.298 -0.546,14.597 -0.818,21.897 3.864,0.143 7.725,0.269 11.594,0.378 C 46.96,38.775 47.475,20.553 47.992,2.327 44.299,2.21 40.601,2.078 36.905,1.929 36.624,9.461 36.335,16.991 36.059,24.521 27.285,24.196 18.514,23.777 9.748,23.266 10.19,15.743 10.635,8.219 11.082,0.698 7.387,0.482 3.693,0.25 0,0"
             style="fill:#ffffff;fill-opacity:1;fill-rule:nonzero;stroke:none"
             id="path186"
             inkscape:connector-curvature="0" /></g><g
           id="g188"
           transform="translate(718.8594,1033.084)"><path
             d="m 0,0 c 3.85,0.09 7.704,0.162 11.551,0.216 0.262,-18.239 0.531,-36.482 0.796,-54.725 C 8.663,-54.561 4.979,-54.63 1.296,-54.717 0.861,-36.478 0.428,-18.24 0,0"
             style="fill:#ffffff;fill-opacity:1;fill-rule:nonzero;stroke:none"
             id="path190"
             inkscape:connector-curvature="0" /></g><g
           id="g192"
           transform="translate(737.4434,978.6514)"><path
             d="m 0,0 c -0.171,18.229 -0.342,36.46 -0.513,54.691 1.291,0.012 2.578,0.022 3.869,0.028 C 15.537,43.372 27.388,31.85 38.91,20.165 39.17,31.587 39.422,43.008 39.675,54.43 43.543,54.343 47.404,54.239 51.262,54.119 50.689,35.897 50.117,17.674 49.535,-0.545 48.179,-0.506 46.82,-0.463 45.469,-0.428 34.337,11.195 22.873,22.662 11.091,33.963 11.091,22.66 11.094,11.356 11.096,0.051 7.398,0.051 3.7,0.034 0,0"
             style="fill:#ffffff;fill-opacity:1;fill-rule:nonzero;stroke:none"
             id="path194"
             inkscape:connector-curvature="0" /></g><g
           id="g196"
           transform="translate(798.8828,985.5391)"><path
             d="m 0,0 c -5.124,5.424 -7.605,12.038 -7.339,19.887 0.296,7.672 3.239,14.047 8.966,19.055 5.716,5.011 12.717,7.312 20.902,6.841 8.266,-0.469 15.21,-3.38 20.731,-8.664 -2.756,-2.466 -5.494,-4.94 -8.219,-7.423 -3.687,3.177 -8.078,4.914 -13.135,5.205 C 16.751,35.173 12.512,33.85 9.229,30.962 5.943,28.073 4.212,24.255 4.008,19.52 3.811,14.441 5.207,10.343 8.153,7.214 11.101,4.079 15.072,2.382 20.091,2.099 c 4.022,-0.233 7.167,0.348 9.434,1.761 0.204,3.118 0.407,6.236 0.609,9.353 -2.51,0.15 -5.013,0.293 -7.524,0.428 0.203,3.397 0.4,6.795 0.602,10.192 C 29.535,23.46 35.861,23.042 42.18,22.575 41.548,14.092 40.913,5.607 40.275,-2.878 34.238,-7.308 27.316,-9.272 19.384,-8.821 11.555,-8.348 5.128,-5.431 0,0"
             style="fill:#ffffff;fill-opacity:1;fill-rule:nonzero;stroke:none"
             id="path198"
             inkscape:connector-curvature="0" /></g><g
           id="g200"
           transform="translate(896.4141,1024.8174)"><path
             d="m 0,0 c -0.396,-3.379 -0.793,-6.761 -1.186,-10.139 -6.366,0.742 -12.733,1.434 -19.107,2.079 -1.5,-14.752 -3.013,-29.504 -4.53,-44.257 -3.686,0.374 -7.374,0.73 -11.068,1.069 1.388,14.767 2.763,29.533 4.126,44.296 -6.374,0.587 -12.75,1.127 -19.131,1.616 0.264,3.39 0.519,6.783 0.782,10.176 C -33.393,3.557 -16.691,1.945 0,0"
             style="fill:#ffffff;fill-opacity:1;fill-rule:nonzero;stroke:none"
             id="path202"
             inkscape:connector-curvature="0" /></g><g
           id="g204"
           transform="translate(917.2598,977.3213)"><path
             d="m 0,0 c 4.925,-0.681 9.158,0.359 12.748,3.144 3.595,2.787 5.78,6.574 6.52,11.377 0.742,4.804 -0.205,9.071 -2.889,12.787 -2.678,3.714 -6.588,5.944 -11.704,6.649 -5.062,0.701 -9.409,-0.387 -12.993,-3.237 -3.593,-2.851 -5.668,-6.698 -6.274,-11.52 -0.603,-4.825 0.449,-9.059 3.131,-12.71 C -8.773,2.838 -4.967,0.686 0,0 m -20.18,0.248 c -4.672,5.842 -6.609,12.598 -5.715,20.303 0.895,7.725 4.35,13.881 10.473,18.407 6.117,4.519 13.33,6.238 21.537,5.106 8.206,-1.133 14.696,-4.748 19.36,-10.757 4.668,-6.014 6.326,-12.875 5.068,-20.553 C 29.286,5.077 25.55,-0.903 19.438,-5.243 13.318,-9.586 6.389,-11.195 -1.454,-10.11 -9.305,-9.026 -15.506,-5.6 -20.18,0.248"
             style="fill:#ffffff;fill-opacity:1;fill-rule:nonzero;stroke:none"
             id="path206"
             inkscape:connector-curvature="0" /></g><g
           id="g208"
           transform="translate(946.7041,962.54)"><path
             d="M 0,0 C 3.018,17.985 6.007,35.975 8.983,53.965 10.257,53.754 11.539,53.54 12.815,53.326 22.95,40.048 32.731,26.65 42.151,13.147 c 2.245,11.208 4.475,22.416 6.697,33.624 3.833,-0.751 7.653,-1.526 11.476,-2.314 -3.71,-17.853 -7.451,-35.702 -11.221,-53.548 -1.342,0.276 -2.681,0.55 -4.02,0.822 C 36.037,5.104 26.65,18.381 16.913,31.547 14.953,20.409 12.989,9.275 11.017,-1.859 7.343,-1.224 3.674,-0.603 0,0"
             style="fill:#ffffff;fill-opacity:1;fill-rule:nonzero;stroke:none"
             id="path210"
             inkscape:connector-curvature="0" /></g><g
           id="g212"
           transform="translate(733.2471,1191.6582)"><path
             d="m 0,0 c 0.097,-1.388 0.219,-2.723 0.375,-4.007 1.489,-12.449 5.456,-20.038 5.456,-20.038 l 74.12,7.403 L 69.132,-4.984 17.849,-10 c 0,0 -1.74,1.024 -2.924,5.993 -0.359,1.488 -0.662,3.33 -0.859,5.608 -0.142,1.663 -0.223,3.556 -0.223,5.714 0,2.643 0.122,4.917 0.329,6.874 0.158,1.518 0.368,2.844 0.605,4.001 1.184,5.792 3.072,7.322 3.072,7.322 l 6.219,0.692 c 0.698,4.9 0.65,9.328 0.41,12.621 L 20.794,38.414 5.831,36.713 c 0,0 -3.427,-6.858 -5.104,-18.523 C 0.472,16.437 0.26,14.574 0.104,12.611 -0.079,10.33 -0.183,7.915 -0.183,5.374 -0.183,3.509 -0.115,1.717 0,0"
             style="fill:#ffffff;fill-opacity:1;fill-rule:nonzero;stroke:none"
             id="path214"
             inkscape:connector-curvature="0" /></g><g
           id="g216"
           transform="translate(787.293,1219.7617)"><path
             d="m 0,0 5.119,0.219 0,-11.806 12.626,1.399 0,24.451 -18.014,-1.688 C 0.169,8.016 0.135,3.424 0,0"
             style="fill:#ffffff;fill-opacity:1;fill-rule:nonzero;stroke:none"
             id="path218"
             inkscape:connector-curvature="0" /></g><g
           id="g220"
           transform="translate(721.9707,1191.1553)"><path
             d="M 0,0 4.504,0.525 C 4.338,3.753 4.236,8.405 4.609,13.14 L 0,12.606 0,18.693 -1.493,55.677 -14.118,54.278 -12.625,-1.437 0,0 z"
             style="fill:#c31b32;fill-opacity:1;fill-rule:nonzero;stroke:none"
             id="path222"
             inkscape:connector-curvature="0" /></g><g
           id="g224"
           transform="translate(695.498,1237.8311)"><path
             d="m 0,0 66.193,4.253 c 0,0 1.712,-1.009 2.9,-5.877 0.366,-1.51 0.682,-3.387 0.885,-5.721 0.141,-1.663 0.226,-3.557 0.226,-5.715 0,-2.642 -0.125,-4.916 -0.335,-6.874 -0.069,-0.687 -0.151,-1.335 -0.245,-1.946 -0.939,-6.383 -2.765,-8.693 -3.286,-9.239 -0.092,-0.094 -0.145,-0.136 -0.145,-0.136 l -6.222,-0.78 c -0.356,-2.675 -0.736,-7.222 -0.293,-12.607 l 6.66,0.832 11.877,1.352 c 0,0 3.833,7.665 5.377,20.578 0.135,1.135 0.25,2.311 0.346,3.524 0.182,2.278 0.289,4.694 0.289,7.238 0,1.863 -0.068,3.655 -0.184,5.374 -0.101,1.427 -0.229,2.8 -0.387,4.12 -1.503,12.381 -5.441,19.923 -5.441,19.923 L -10.822,11.659 0,0 z"
             style="fill:#c31b32;fill-opacity:1;fill-rule:nonzero;stroke:none"
             id="path226"
             inkscape:connector-curvature="0" /></g><g
           id="g228"
           transform="translate(748.9961,384.1211)"><path
             d="m 0,0 c -37.896,0 -73.478,15.588 -100.188,43.893 -26.504,28.075 -41.104,65.353 -41.104,104.962 0,9.741 0.914,19.52 2.708,29.068 -1.008,10.12 -0.277,17.765 0.019,20.181 1.13,29.887 9.538,51.861 24.996,65.516 13.537,11.954 28.867,14.46 39.343,14.46 1.296,0 2.589,-0.039 3.857,-0.12 12.89,7.821 26.775,13.395 41.309,16.595 7.065,8.965 17.307,13.878 28.999,13.878 11.689,0 21.924,-4.908 28.976,-13.849 13.845,-3.032 27.122,-8.229 39.492,-15.458 1.286,0.079 2.623,0.122 3.982,0.122 10.473,0 25.801,-2.505 39.334,-14.46 15.491,-13.676 23.899,-35.712 24.996,-65.495 0.271,-2.266 0.752,-7.469 0.426,-14.59 2.743,-11.679 4.134,-23.736 4.134,-35.848 0,-39.607 -14.596,-76.882 -41.097,-104.962 C 73.469,15.588 37.891,0 0,0"
             style="fill:#ffffff;fill-opacity:1;fill-rule:nonzero;stroke:none"
             id="path230"
             inkscape:connector-curvature="0" /></g><g
           id="g232"
           transform="translate(621.8062,532.9766)"><path
             d="m 0,0 c 0,74.428 56.941,134.764 127.19,134.764 70.239,0 127.182,-60.336 127.182,-134.764 0,-74.428 -56.943,-134.759 -127.182,-134.759 C 56.941,-134.759 0,-74.428 0,0"
             style="fill:#171e27;fill-opacity:1;fill-rule:nonzero;stroke:none"
             id="path234"
             inkscape:connector-curvature="0" /></g><g
           id="g236"
           transform="translate(748.9961,654.665)"><path
             d="M 0,0 C 59.685,0 108.246,-48.563 108.246,-108.25 108.246,-167.943 59.685,-216.5 0,-216.5 c -59.698,0 -108.255,48.557 -108.255,108.25 C -108.255,-48.563 -59.698,0 0,0"
             style="fill:#ffffff;fill-opacity:1;fill-rule:nonzero;stroke:none"
             id="path238"
             inkscape:connector-curvature="0" /></g><g
           id="g240"
           transform="translate(748.9434,624.9229)"><path
             d="m 0,0 c 54.608,0 99.869,-40.647 107.188,-93.275 0.682,4.895 1.06,9.891 1.06,14.976 0,59.69 -48.552,108.253 -108.248,108.253 -59.693,0 -108.25,-48.563 -108.25,-108.253 0,-5.085 0.377,-10.081 1.058,-14.976 C -99.871,-40.647 -54.608,0 0,0"
             style="fill:#c1bfbe;fill-opacity:1;fill-rule:nonzero;stroke:none"
             id="path242"
             inkscape:connector-curvature="0" /></g><g
           id="g244"
           transform="translate(748.9355,574.7822)"><path
             d="m 0,0 c 4.461,-13.688 8.918,-27.29 13.379,-40.813 14.429,0.54 28.831,1.939 43.135,4.201 -11.573,-10.29 -23.205,-20.012 -34.871,-29.172 4.453,-13.419 8.903,-26.751 13.348,-40.005 -11.636,7.326 -23.31,15.211 -34.991,23.674 -11.675,-8.463 -23.355,-16.348 -34.993,-23.674 4.448,13.254 8.893,26.586 13.347,40.005 -11.659,9.16 -23.299,18.882 -34.864,29.172 14.301,-2.262 28.699,-3.661 43.13,-4.201 C -8.92,-27.29 -4.462,-13.688 0,0"
             style="fill:#171e27;fill-opacity:1;fill-rule:nonzero;stroke:none"
             id="path246"
             inkscape:connector-curvature="0" /></g><g
           id="g248"
           transform="translate(871.6465,582.2598)"><path
             d="m 0,0 c -2.551,77.796 -57.443,66.431 -57.443,66.431 l 13.596,-19.81 c -14.424,13.361 -24.608,17.742 -12.375,3.393 23.775,-27.925 14.283,-79.295 7.726,-97.664 -6.569,-18.379 0,-22.106 0,-22.106 l -7.726,-18.39 C 9.729,-63.811 0,0 0,0"
             style="fill:#171e27;fill-opacity:1;fill-rule:nonzero;stroke:none"
             id="path250"
             inkscape:connector-curvature="0" /></g><g
           id="g252"
           transform="translate(624.4971,581.0859)"><path
             d="M 0,0 C 2.556,77.802 57.452,66.438 57.452,66.438 L 43.851,46.626 c 14.421,13.359 24.602,17.74 12.382,3.391 -23.784,-27.92 -14.291,-79.292 -7.727,-97.669 6.559,-18.372 0,-22.099 0,-22.099 l 7.727,-18.395 C -9.719,-63.803 0,0 0,0"
             style="fill:#171e27;fill-opacity:1;fill-rule:nonzero;stroke:none"
             id="path254"
             inkscape:connector-curvature="0" /></g><g
           id="g256"
           transform="translate(748.9355,678.459)"><path
             d="m 0,0 c -35.188,0 -26.801,-62.346 -21.571,-71.624 5.226,-9.283 14.967,-12.164 14.967,-12.164 L 0,-96.199 6.607,-83.788 c 0,0 9.744,2.881 14.965,12.164 C 26.807,-62.346 35.191,0 0,0"
             style="fill:#171e27;fill-opacity:1;fill-rule:nonzero;stroke:none"
             id="path258"
             inkscape:connector-curvature="0" /></g><g
           id="g260"
           transform="translate(652.8447,632.1533)"><path
             d="m 0,0 8.228,-2.97 -16.982,-9.434 c 0,0 10.211,-9.117 12.769,-13.123 0,0 -8.898,-0.816 -16.119,-4.054 0,0 3.926,-13.065 14.347,-16.374 0,0 -9.904,-8.772 -21.935,-5.112 0,0 -3.28,37.934 19.692,51.067"
             style="fill:#ffffff;fill-opacity:1;fill-rule:nonzero;stroke:none"
             id="path262"
             inkscape:connector-curvature="0" /></g><g
           id="g264"
           transform="translate(843.0391,633.3213)"><path
             d="m 0,0 -8.228,-2.964 16.975,-9.44 c 0,0 -10.202,-9.113 -12.76,-13.118 0,0 8.899,-0.818 16.119,-4.054 0,0 -3.931,-13.066 -14.349,-16.374 0,0 9.901,-8.776 21.935,-5.112 0,0 3.282,37.934 -19.692,51.062"
             style="fill:#ffffff;fill-opacity:1;fill-rule:nonzero;stroke:none"
             id="path266"
             inkscape:connector-curvature="0" /></g><g
           id="g268"
           transform="translate(753.0908,637.7285)"><path
             d="m 0,0 13.347,6.553 c 0,0 -4.994,6.724 -13.347,9.298 l 10.462,4.731 c 0,0 -6.223,7.228 -14.566,7.228 l -0.043,0 c -8.336,0 -14.569,-7.228 -14.569,-7.228 L -8.254,15.851 C -16.604,13.277 -21.599,6.553 -21.599,6.553 L -8.254,0 -18.732,-6.958 c 7.424,-2.731 13.998,-3.602 14.585,-3.679 l 0,-0.002 0.019,0.002 c 0.019,-0.002 0.024,-0.002 0.024,-0.002 l 0,0.002 c 0.586,0.077 7.16,0.948 14.587,3.679 L 0,0 z"
             style="fill:#ffffff;fill-opacity:1;fill-rule:nonzero;stroke:none"
             id="path270"
             inkscape:connector-curvature="0" /></g><g
           id="g272"
           transform="translate(789.957,459.376)"><path
             d="m 0,0 6.566,-12.399 32.09,8.75 L 0,0 z"
             style="fill:#171e27;fill-opacity:1;fill-rule:nonzero;stroke:none"
             id="path274"
             inkscape:connector-curvature="0" /></g><g
           id="g276"
           transform="translate(709.0059,459.376)"><path
             d="M 0,0 -6.568,-12.399 -38.657,-3.649 0,0 z"
             style="fill:#171e27;fill-opacity:1;fill-rule:nonzero;stroke:none"
             id="path278"
             inkscape:connector-curvature="0" /></g><g
           id="g280"
           transform="translate(617.0386,570.1152)"><path
             d="m 0,0 c 0,0 -2.239,-21.945 21.077,-44.258 0,0 -14.489,17.663 -14.054,50.992 C 7.456,40.06 0,0 0,0"
             style="fill:#ffffff;fill-opacity:1;fill-rule:nonzero;stroke:none"
             id="path282"
             inkscape:connector-curvature="0" /></g><g
           id="g284"
           transform="translate(878.2178,570.1152)"><path
             d="m 0,0 c 0,0 2.238,-21.945 -21.074,-44.258 0,0 14.483,17.663 14.051,50.992 C -7.456,40.06 0,0 0,0"
             style="fill:#ffffff;fill-opacity:1;fill-rule:nonzero;stroke:none"
             id="path286"
             inkscape:connector-curvature="0" /></g><g
           id="g288"
           transform="translate(458.2656,727.4883)"><path
             d="m 0,0 c -2.448,-0.008 -4.852,0.107 -7.143,0.336 -10.163,1.032 -19.626,3.608 -28.122,7.677 l -6.389,3.056 3.342,6.242 c 4.162,7.777 8.479,15.592 12.829,23.22 l 3.454,6.055 5.953,-3.629 c 4.146,-2.529 9.436,-3.753 16.169,-3.734 4.02,0.008 8.583,0.485 13.557,1.414 13.151,3.607 15.669,7.404 16.139,8.875 1.064,3.325 0.493,5.659 -1.965,8.052 -1.525,1.484 -5.059,2.329 -9.696,2.318 -2.986,-0.007 -6.472,-0.355 -10.359,-1.034 -5.662,-0.93 -11.26,-1.403 -16.702,-1.42 -6.68,-0.016 -13.364,0.66 -19.869,2.008 -13.475,2.794 -23.115,12.075 -27.877,26.844 -4.441,13.776 -1.135,27.426 9.556,39.464 10.126,11.4 22.137,19.02 35.697,22.653 11.146,2.981 20.979,4.505 29.227,4.526 2.65,0.005 5.18,-0.145 7.513,-0.446 9.357,-1.21 18.519,-4.295 27.247,-9.164 l 6.74,-3.762 -4.614,-6.189 C 49.266,126.083 43.901,118.675 38.731,111.336 l -3.804,-5.4 -5.491,3.67 c -4.246,2.841 -9.024,4.211 -14.607,4.197 -3.218,-0.01 -6.701,-0.496 -10.353,-1.452 -8.944,-2.347 -14.933,-5.772 -16.009,-9.166 -1.175,-3.686 -0.206,-4.273 0.654,-4.792 0.749,-0.453 3.187,-1.492 9.818,-1.475 2.915,0.007 6.368,0.221 10.269,0.635 4.485,0.721 8.977,1.085 13.363,1.099 8.859,0.023 17.541,-1.408 25.803,-4.256 C 62.013,89.695 70.653,79.125 74.065,62.977 76.717,50.413 73.115,38.121 63.364,26.432 54.115,15.354 42.53,8.077 27.948,4.184 17.491,1.391 8.349,0.021 0,0"
             style="fill:#171e27;fill-opacity:1;fill-rule:nonzero;stroke:none"
             id="path290"
             inkscape:connector-curvature="0" /></g><g
           id="g292"
           transform="translate(482.7178,873.252)"><path
             d="m 0,0 c 8.506,-1.097 16.807,-3.892 24.805,-8.361 -5.474,-7.347 -10.827,-14.74 -16.058,-22.167 -8.251,5.514 -18.478,6.792 -30.438,3.664 -11.959,-3.138 -18.879,-7.792 -20.746,-13.66 -1.874,-5.878 -0.633,-10.08 3.606,-12.639 4.24,-2.566 12.395,-3.056 24.482,-1.757 12.591,2.041 24.691,1.073 36.068,-2.845 11.388,-3.932 18.399,-12.828 21.269,-26.418 2.247,-10.65 -0.978,-20.864 -9.275,-30.808 -8.306,-9.958 -18.857,-16.549 -31.961,-20.052 -12.455,-3.321 -23.284,-4.592 -32.664,-3.645 -9.386,0.946 -17.995,3.271 -25.887,7.045 4.126,7.707 8.373,15.399 12.746,23.06 8.275,-5.053 19.799,-5.976 34.77,-3.146 12.207,3.31 19.23,7.669 21.067,13.419 1.832,5.739 0.649,10.738 -3.69,14.961 -4.331,4.21 -13.002,5.359 -25.942,3.1 -11.671,-1.919 -22.953,-1.75 -34.032,0.548 -11.067,2.295 -18.726,9.635 -22.806,22.291 -3.685,11.433 -1.097,22.457 8.168,32.892 9.259,10.424 20.172,17.341 32.393,20.611 C -19.94,-0.11 -8.511,1.101 0,0"
             style="fill:#ffffff;fill-opacity:1;fill-rule:nonzero;stroke:none"
             id="path294"
             inkscape:connector-curvature="0" /></g><g
           id="g296"
           transform="translate(578.4639,847.8311)"><path
             d="m 0,0 c 11.616,1.74 23.352,3.306 34.985,4.658 11.247,1.483 11.234,6.213 11.038,9.475 -0.325,2.343 -1.108,5.973 -9.804,5.95 C 35.349,20.082 34.42,20.038 33.455,19.958 21.538,18.577 9.521,16.977 -2.38,15.192 L 0,0 z m -52.959,46.127 6.651,1.24 c 22.504,4.174 45.436,7.704 68.161,10.488 5.033,0.603 9.836,0.911 14.294,0.923 C 67.136,58.858 85.176,44.331 86.948,17.874 88.991,-12.529 70.936,-30.23 33.283,-34.734 24.231,-35.847 15.087,-37.09 6.019,-38.45 l 8.685,-55.492 -6.688,-1.049 c -8.989,-1.406 -18.089,-2.963 -27.043,-4.623 l -6.654,-1.238 -27.278,146.979 z"
             style="fill:#171e27;fill-opacity:1;fill-rule:nonzero;stroke:none"
             id="path298"
             inkscape:connector-curvature="0" /></g><g
           id="g300"
           transform="translate(572.8184,840.1172)"><path
             d="M 0,0 C 13.79,2.162 27.617,4.041 41.465,5.656 53.363,7.208 59.018,12.725 58.412,22.514 57.215,31.373 50.546,35.434 38.432,34.41 24.102,32.748 9.8,30.8 -4.469,28.563 -2.979,19.044 -1.486,9.521 0,0 M -14.613,-85.243 C -22.887,-40.69 -31.154,3.865 -39.425,48.421 -16.931,52.598 5.664,56.073 28.319,58.85 64.862,63.221 84.101,51.079 85.842,25.134 87.662,-1.968 71.693,-16.28 38.12,-20.302 26.701,-21.704 15.303,-23.29 3.925,-25.071 6.821,-43.575 9.719,-62.083 12.614,-80.589 3.52,-82.014 -5.555,-83.564 -14.613,-85.243"
             style="fill:#ffffff;fill-opacity:1;fill-rule:nonzero;stroke:none"
             id="path302"
             inkscape:connector-curvature="0" /></g><g
           id="g304"
           transform="translate(671.7686,912.2417)"><path
             d="M 0,0 6.76,0.347 C 17.199,0.888 27.771,1.29 38.193,1.538 l 6.764,0.16 3.559,-149.536 -6.769,-0.162 c -9.048,-0.213 -18.212,-0.562 -27.237,-1.03 L 7.75,-149.381 0,0 z"
             style="fill:#171e27;fill-opacity:1;fill-rule:nonzero;stroke:none"
             id="path306"
             inkscape:connector-curvature="0" /></g><g
           id="g308"
           transform="translate(678.8779,905.8296)"><path
             d="m 0,0 c 10.412,0.539 20.825,0.934 31.246,1.183 1.072,-45.336 2.154,-90.668 3.23,-136.002 -9.147,-0.218 -18.288,-0.566 -27.424,-1.042 C 4.705,-90.57 2.352,-45.285 0,0"
             style="fill:#ffffff;fill-opacity:1;fill-rule:nonzero;stroke:none"
             id="path310"
             inkscape:connector-curvature="0" /></g><g
           id="g312"
           transform="translate(813.3213,856.8579)"><path
             d="m 0,0 c 0.696,-0.041 1.374,-0.058 2.019,-0.054 8.736,0.019 10.08,3.587 10.584,7.312 0.125,2.529 -0.015,6.87 -11.249,8.058 -11.934,0.866 -24.018,1.538 -36.021,2.006 L -35.171,1.955 C -23.451,1.497 -11.652,0.842 0,0 m 43.772,-99.852 c -10.331,1.294 -20.835,2.435 -31.21,3.393 l -3.86,0.358 -1.648,3.507 c -8.627,18.393 -17.912,36.846 -27.625,54.906 -5.282,0.291 -10.586,0.541 -15.867,0.75 l -1.838,-56.144 -6.764,0.222 c -9.08,0.299 -18.28,0.47 -27.336,0.507 l -6.771,0.029 0.673,149.492 6.77,-0.031 c 22.828,-0.103 45.958,-0.916 68.742,-2.42 22.793,-1.575 39.025,-8.039 48.259,-19.217 7.02,-8.497 9.787,-19.34 8.224,-32.219 -2.239,-18.999 -11.903,-31.994 -28.134,-37.997 8.992,-18.388 17.544,-37.117 25.46,-55.776 l 4.588,-10.82 -11.663,1.46 z"
             style="fill:#171e27;fill-opacity:1;fill-rule:nonzero;stroke:none"
             id="path314"
             inkscape:connector-curvature="0" /></g><g
           id="g316"
           transform="translate(771.1621,852.2925)"><path
             d="M 0,0 C 13.916,-0.457 27.825,-1.187 41.722,-2.187 53.69,-2.884 60.277,1.485 61.507,11.211 61.987,20.137 56.192,25.375 44.11,26.625 29.736,27.668 15.345,28.425 0.946,28.894 0.637,19.259 0.318,9.628 0,0 m 57.886,-25.865 c 10.334,-20.76 19.965,-41.677 28.882,-62.705 -10.458,1.312 -20.939,2.447 -31.427,3.415 -9.224,19.665 -19.091,39.2 -29.597,58.577 -8.85,0.52 -17.707,0.923 -26.57,1.212 -0.61,-18.721 -1.221,-37.441 -1.836,-56.165 -9.172,0.303 -18.349,0.471 -27.526,0.51 0.203,45.318 0.405,90.638 0.613,135.952 C -6.786,54.83 16.001,54.03 38.748,52.526 75.428,49.998 92.098,34.474 88.961,8.666 86.656,-10.866 76.176,-22.127 57.886,-25.865"
             style="fill:#ffffff;fill-opacity:1;fill-rule:nonzero;stroke:none"
             id="path318"
             inkscape:connector-curvature="0" /></g><g
           id="g320"
           transform="translate(910.5439,748.5322)"><path
             d="m 0,0 c -8.961,1.512 -18.047,2.916 -27.006,4.168 l -6.708,0.942 20.75,148.134 6.702,-0.939 c 10.361,-1.45 20.849,-3.071 31.172,-4.814 L 31.587,146.363 6.677,-1.129 0,0 z"
             style="fill:#171e27;fill-opacity:1;fill-rule:nonzero;stroke:none"
             id="path322"
             inkscape:connector-curvature="0" /></g><g
           id="g324"
           transform="translate(903.3428,894.1338)"><path
             d="m 0,0 c 10.346,-1.449 20.675,-3.042 30.982,-4.784 -7.552,-44.715 -15.1,-89.431 -22.658,-134.143 -9.046,1.527 -18.116,2.93 -27.191,4.198 C -12.579,-89.817 -6.286,-44.908 0,0"
             style="fill:#ffffff;fill-opacity:1;fill-rule:nonzero;stroke:none"
             id="path326"
             inkscape:connector-curvature="0" /></g><g
           id="g328"
           transform="translate(1002.2969,728.4248)"><path
             d="m 0,0 c -8.832,2.392 -17.816,4.683 -26.696,6.819 l -6.579,1.577 25.82,107.493 c -14.349,3.352 -28.888,6.437 -43.313,9.191 l -6.651,1.265 7.29,38.229 6.65,-1.27 C 1.489,154.723 46.395,143.258 89.979,129.218 l 6.442,-2.072 -11.927,-37.042 -6.442,2.077 c -14.072,4.528 -28.389,8.818 -42.656,12.77 L 6.537,-1.767 0,0 z"
             style="fill:#171e27;fill-opacity:1;fill-rule:nonzero;stroke:none"
             id="path330"
             inkscape:connector-curvature="0" /></g><g
           id="g332"
           transform="translate(1090.2012,851.1997)"><path
             d="m 0,0 c -2.593,-8.05 -5.184,-16.101 -7.774,-24.154 -16.412,5.286 -32.912,10.167 -49.494,14.652 -9.621,-35.581 -19.242,-71.163 -28.864,-106.739 -8.937,2.418 -17.903,4.707 -26.889,6.866 8.607,35.838 17.216,71.675 25.828,107.512 -16.673,4.006 -33.413,7.612 -50.207,10.816 1.583,8.31 3.164,16.618 4.75,24.927 C -87.954,25.352 -43.653,14.062 0,0"
             style="fill:#ffffff;fill-opacity:1;fill-rule:nonzero;stroke:none"
             id="path334"
             inkscape:connector-curvature="0" /></g></g></g></g></svg>